<?xml version="1.0" encoding="utf-8"?>
<!-- Generator: Adobe Illustrator 23.0.0, SVG Export Plug-In . SVG Version: 6.00 Build 0)  -->
<svg version="1.1" id="Layer_1" xmlns="http://www.w3.org/2000/svg" xmlns:xlink="http://www.w3.org/1999/xlink" x="0px" y="0px"
	 viewBox="0 0 448 512" style="enable-background:new 0 0 448 512;" xml:space="preserve">
<style type="text/css">
	.st0{fill:#FFFFFF;}
</style>
<path class="st0" d="M448,88v336c0,13.3-10.7,24-24,24h-24c-13.3,0-24-10.7-24-24V88c0-13.3,10.7-24,24-24h24
	C437.3,64,448,74.7,448,88z M193.5,357.6L127.9,292H328c13.3,0,24-10.7,24-24v-24c0-13.3-10.7-24-24-24H127.9l65.6-65.6
	c9.4-9.4,9.4-24.6,0-33.9l-17-17c-9.4-9.4-24.6-9.4-33.9,0L7,239c-9.4,9.4-9.4,24.6,0,33.9l135.5,135.5c9.4,9.4,24.6,9.4,33.9,0
	l17-17C202.8,382.1,202.8,366.9,193.5,357.6z"/>
</svg>
